<svg version="1" xmlns="http://www.w3.org/2000/svg" width="400" height="400" viewBox="0 0 300.000000 300.000000"><path d="M137.6 29.4c-19.9 8.3-20.8 34.8-1.6 44.6 3.3 1.7 6.4 2.1 16.8 2.4 10.7.3 14 .8 20.6 3.1 26.8 9.2 45.2 30.9 49.9 58.5 4.1 24.2-3.2 47-20.7 64.6-14.3 14.4-28.9 20.9-49.6 22-8.7.5-12 .3-19.3-1.5-17.5-4.2-31.5-12.8-41.8-25.8-10.4-13.1-15.7-27.1-16.5-43.9-.3-7.5-.9-10.5-2.9-14.3-4.4-8.8-12-13.4-22.1-13.4-14.9.1-24.7 11.6-23.8 27.9 1.5 27.8 9.7 50.7 25.7 71.3 7.5 9.7 7.7 9.9 16.1 17.2 20 17.5 40.2 26.6 67.6 30.6 3.6.5 27 .4 30-.2 1.4-.2 3.9-.6 5.5-.9 2.9-.4 7.5-1.5 14.5-3.4 17.9-4.9 38.5-17.7 53-32.8 16.9-17.7 27.5-38.7 32.5-64.4 1.4-7 1.3-32.4-.1-40.5-5.3-30.3-20.4-56-44.7-76.2-14-11.7-37.3-22.5-53.7-25-1.9-.3-5.4-.8-7.7-1.3-2.3-.4-8.2-.8-13-.9-7.3-.1-9.8.3-14.7 2.3z"/><path d="M55.2 41.2c-13.6 2.3-22.4 14.8-20 28.2 1.6 8.9 1.1 8.2 34.7 39.4 5.7 5.4 12 11.3 14.1 13.2 4.4 4.2 24.5 22.9 30.4 28.3 8.2 7.5 17.4 9.8 26.6 6.7 13.5-4.6 20.1-20.3 14-33.3-1.9-4-8.3-11.1-15.6-17.4-1.2-1-7.9-7.2-15-13.9-7.1-6.6-15.8-14.8-19.4-18.1-3.6-3.4-9-8.4-12-11.3-11.7-11-20-18.3-22.4-19.5-4.1-2.1-10.8-3.2-15.4-2.3z"/></svg>